<svg aria-hidden="true" style="position: absolute; width: 0; height: 0; overflow: hidden;" version="1.1" xmlns="http://www.w3.org/2000/svg" xmlns:xlink="http://www.w3.org/1999/xlink">
<defs>
<symbol id="icon-burger" viewBox="0 0 75 32">
<path d="M0 0h75.294v5.647h-75.294zM0 13.176h75.294v5.647h-75.294zM0 26.353h75.294v5.647h-75.294z"></path>
<path d="M0 0h75.294v5.647h-75.294z"></path>
</symbol>
<symbol id="icon-close" viewBox="0 0 33 32">
<path d="M3.013 0.307l29.196 29.196-2.19 2.19-29.196-29.196z"></path>
<path d="M0.823 29.503l29.196-29.196 2.19 2.19-29.196 29.196z"></path>
</symbol>
<symbol id="icon-logo" viewBox="0 0 52 32">
<path d="M18.413 31.36c0.254 0 0.459-0.074 0.616-0.224s0.235-0.366 0.235-0.65v-1.456c0-0.358 0.026-0.672 0.078-0.941s0.116-0.53 0.19-0.784l4.072-14.498 3.858 14.856c0.090 0.307 0.154 0.546 0.194 0.716l0.018 0.079c0.038 0.172 0.056 0.362 0.056 0.571v1.456c0 0.284 0.078 0.5 0.235 0.65s0.362 0.224 0.616 0.224h8.557c0.239 0 0.44-0.074 0.605-0.224s0.246-0.366 0.246-0.65v-1.456c0-0.298 0.018-0.564 0.056-0.795s0.108-0.542 0.213-0.93l4.973-21.526c0.239-1 0.612-1.803 1.12-2.408s1.090-1.049 1.747-1.333l0.538-0.246c0.269-0.134 0.459-0.265 0.571-0.392s0.168-0.295 0.168-0.504c0-0.269-0.094-0.486-0.28-0.65s-0.466-0.246-0.84-0.246h-7.123c-0.374 0-0.654 0.082-0.84 0.246s-0.28 0.381-0.28 0.65c0 0.209 0.048 0.377 0.146 0.504s0.25 0.242 0.459 0.347l0.493 0.179c0.896 0.328 1.497 0.799 1.803 1.411s0.362 1.329 0.168 2.15l-4.428 18.789-5.182-20.648c-0.106-0.464-0.136-0.814-0.088-1.048l0.021-0.083c0.074-0.232 0.254-0.392 0.538-0.482l0.986-0.269c0.239-0.090 0.414-0.206 0.526-0.347 0.105-0.133 0.168-0.302 0.168-0.487 0-0.006-0-0.012-0-0.018l0 0.001c0-0.284-0.090-0.504-0.269-0.661s-0.456-0.235-0.829-0.235h-12.701c-0.358 0-0.631 0.078-0.818 0.235s-0.28 0.377-0.28 0.661c0 0.179 0.048 0.332 0.146 0.459s0.258 0.235 0.482 0.325l0.941 0.336c0.209 0.074 0.37 0.194 0.482 0.358s0.235 0.486 0.37 0.963l1.401 5.394-4.442 15.58-5.202-20.727c-0.118-0.392-0.155-0.718-0.112-0.978l0.022-0.108c0.074-0.276 0.262-0.459 0.56-0.549l1.165-0.269c0.403-0.134 0.605-0.403 0.605-0.806 0-0.269-0.090-0.482-0.269-0.638s-0.456-0.235-0.829-0.235h-12.97c-0.358 0-0.627 0.078-0.806 0.235s-0.269 0.37-0.269 0.638c0 0.179 0.045 0.347 0.134 0.504s0.232 0.28 0.426 0.37l0.986 0.314c0.284 0.104 0.5 0.246 0.65 0.426s0.276 0.463 0.381 0.851l6.272 24.326c0.090 0.344 0.153 0.601 0.19 0.773s0.056 0.37 0.056 0.594v1.456c0 0.284 0.082 0.5 0.246 0.65s0.374 0.224 0.627 0.224h8.445zM46.256 31.92c0.956 0 1.81-0.232 2.565-0.694 0.751-0.464 1.357-1.096 1.779-1.845l0.013-0.025c0.44-0.784 0.661-1.632 0.661-2.542 0-0.926-0.22-1.77-0.661-2.531-0.439-0.757-1.045-1.373-1.77-1.813l-0.023-0.013c-0.754-0.456-1.609-0.683-2.565-0.683-0.926 0-1.766 0.228-2.52 0.683-0.747 0.452-1.352 1.068-1.779 1.801l-0.013 0.024c-0.44 0.762-0.661 1.606-0.661 2.531 0 0.911 0.22 1.758 0.661 2.542s1.038 1.408 1.792 1.87c0.754 0.463 1.594 0.694 2.52 0.694z"></path>
</symbol>
</defs>
</svg>
